REM DIRINDEX 1\5,1\2\6,1\2\7,1\3\8,1\3\9,1\3\10,1\3\11,1\4\12,1\4\13,1\4\14
REM DIRNAME folder01,folder02,folder03,folder04,folder05,folder06,folder07,folder08,folder09,folder10,folder11,folder12,folder13,folder14
TITLE ""
FILE "5Q_h_001-012.mp3" MP3
  TRACK 01 AUDIO
    TITLE "5:cjc043_0001"
    INDEX 01 00:00:00
  TRACK 02 AUDIO
    TITLE "0:"
    INDEX 01 00:02:61
  TRACK 03 AUDIO
    TITLE "12:cjc043_0002"
    INDEX 01 00:03:43
  TRACK 04 AUDIO
    TITLE "0:"
    INDEX 01 00:04:44
  TRACK 05 AUDIO
    TITLE "13:cjc043_0003"
    INDEX 01 00:05:20
  TRACK 06 AUDIO
    TITLE "0:"
    INDEX 01 00:06:22
  TRACK 07 AUDIO
    TITLE "14:cjc043_0004"
    INDEX 01 00:06:73
  TRACK 08 AUDIO
    TITLE "0:"
    INDEX 01 00:07:56
  TRACK 09 AUDIO
    TITLE "12:cjc043_0005"
    INDEX 01 00:08:28
  TRACK 10 AUDIO
    TITLE "0:"
    INDEX 01 00:09:28
  TRACK 11 AUDIO
    TITLE "13:cjc043_0006"
    INDEX 01 00:10:10
  TRACK 12 AUDIO
    TITLE "0:"
    INDEX 01 00:11:13
  TRACK 13 AUDIO
    TITLE "14:cjc043_0007"
    INDEX 01 00:11:68
  TRACK 14 AUDIO
    TITLE "0:"
    INDEX 01 00:12:67
  TRACK 15 AUDIO
    TITLE "12:cjc043_0008"
    INDEX 01 00:13:39
  TRACK 16 AUDIO
    TITLE "0:"
    INDEX 01 00:14:37
  TRACK 17 AUDIO
    TITLE "13:cjc043_0009"
    INDEX 01 00:15:21
  TRACK 18 AUDIO
    TITLE "0:"
    INDEX 01 00:16:20
  TRACK 19 AUDIO
    TITLE "14:cjc043_0010"
    INDEX 01 00:17:00
  TRACK 20 AUDIO
    TITLE "0:"
    INDEX 01 00:19:32
  TRACK 21 AUDIO
    TITLE "12:cjc043_0011"
    INDEX 01 00:20:12
  TRACK 22 AUDIO
    TITLE "0:"
    INDEX 01 00:21:04
  TRACK 23 AUDIO
    TITLE "13:cjc043_0012"
    INDEX 01 00:21:62
  TRACK 24 AUDIO
    TITLE "0:"
    INDEX 01 00:22:56
  TRACK 25 AUDIO
    TITLE "14:cjc043_0013"
    INDEX 01 00:23:36
  TRACK 26 AUDIO
    TITLE "0:"
    INDEX 01 00:24:29
  TRACK 27 AUDIO
    TITLE "12:cjc043_0014"
    INDEX 01 00:25:07
  TRACK 28 AUDIO
    TITLE "0:"
    INDEX 01 00:26:17
  TRACK 29 AUDIO
    TITLE "13:cjc043_0015"
    INDEX 01 00:26:69
  TRACK 30 AUDIO
    TITLE "0:"
    INDEX 01 00:28:04
  TRACK 31 AUDIO
    TITLE "14:cjc043_0016"
    INDEX 01 00:28:53
  TRACK 32 AUDIO
    TITLE "0:"
    INDEX 01 00:29:58
  TRACK 33 AUDIO
    TITLE "12:cjc043_0017"
    INDEX 01 00:30:36
  TRACK 34 AUDIO
    TITLE "0:"
    INDEX 01 00:31:43
  TRACK 35 AUDIO
    TITLE "13:cjc043_0018"
    INDEX 01 00:32:19
  TRACK 36 AUDIO
    TITLE "0:"
    INDEX 01 00:33:26
  TRACK 37 AUDIO
    TITLE "14:cjc043_0019"
    INDEX 01 00:34:04
  TRACK 38 AUDIO
    TITLE "0:"
    INDEX 01 00:35:14
  TRACK 39 AUDIO
    TITLE "12:cjc043_0020"
    INDEX 01 00:35:68
  TRACK 40 AUDIO
    TITLE "0:"
    INDEX 01 00:36:70
  TRACK 41 AUDIO
    TITLE "13:cjc043_0021"
    INDEX 01 00:37:52
  TRACK 42 AUDIO
    TITLE "0:"
    INDEX 01 00:38:53
  TRACK 43 AUDIO
    TITLE "14:cjc043_0022"
    INDEX 01 00:39:27
  TRACK 44 AUDIO
    TITLE "0:"
    INDEX 01 00:41:44
  TRACK 45 AUDIO
    TITLE "12:cjc043_0023"
    INDEX 01 00:42:23
  TRACK 46 AUDIO
    TITLE "0:"
    INDEX 01 00:43:31
  TRACK 47 AUDIO
    TITLE "13:cjc043_0024"
    INDEX 01 00:44:09
  TRACK 48 AUDIO
    TITLE "0:"
    INDEX 01 00:45:16
  TRACK 49 AUDIO
    TITLE "14:cjc043_0025"
    INDEX 01 00:45:67
  TRACK 50 AUDIO
    TITLE "0:"
    INDEX 01 00:47:07
  TRACK 51 AUDIO
    TITLE "12:cjc043_0026"
    INDEX 01 00:47:62
  TRACK 52 AUDIO
    TITLE "0:"
    INDEX 01 00:49:02
  TRACK 53 AUDIO
    TITLE "13:cjc043_0027"
    INDEX 01 00:49:55
  TRACK 54 AUDIO
    TITLE "0:"
    INDEX 01 00:50:70
  TRACK 55 AUDIO
    TITLE "14:cjc043_0028"
    INDEX 01 00:51:48
  TRACK 56 AUDIO
    TITLE "0:"
    INDEX 01 00:52:73
  TRACK 57 AUDIO
    TITLE "12:cjc043_0029"
    INDEX 01 00:53:53
  TRACK 58 AUDIO
    TITLE "0:"
    INDEX 01 00:55:14
  TRACK 59 AUDIO
    TITLE "13:cjc043_0030"
    INDEX 01 00:55:71
  TRACK 60 AUDIO
    TITLE "0:"
    INDEX 01 00:57:31
  TRACK 61 AUDIO
    TITLE "14:cjc043_0031"
    INDEX 01 00:58:13
  TRACK 62 AUDIO
    TITLE "0:"
    INDEX 01 00:59:67
  TRACK 63 AUDIO
    TITLE "12:cjc043_0032"
    INDEX 01 01:00:49
  TRACK 64 AUDIO
    TITLE "0:"
    INDEX 01 01:01:70
  TRACK 65 AUDIO
    TITLE "13:cjc043_0033"
    INDEX 01 01:02:50
  TRACK 66 AUDIO
    TITLE "0:"
    INDEX 01 01:03:71
  TRACK 67 AUDIO
    TITLE "14:cjc043_0034"
    INDEX 01 01:04:48
  TRACK 68 AUDIO
    TITLE "0:"
    INDEX 01 01:06:04
  TRACK 69 AUDIO
    TITLE "12:cjc043_0035"
    INDEX 01 01:06:65
  TRACK 70 AUDIO
    TITLE "0:"
    INDEX 01 01:08:13
  TRACK 71 AUDIO
    TITLE "13:cjc043_0036"
    INDEX 01 01:08:70
  TRACK 72 AUDIO
    TITLE "0:"
    INDEX 01 01:10:16
  TRACK 73 AUDIO
    TITLE "14:cjc043_0037"
    INDEX 01 01:10:71
  TRACK 74 AUDIO
    TITLE "0:"
    INDEX 01 01:12:44
